# xmcd
#
# Track frame offsets:
#	150
#	13928
#	32548
#	47288
#	59092
#	71509
#	87901
#	98047
#	109778
#	125756
#	139250
#	159611
#	171007
#	190906
#
# Disc length: 2788 seconds
#
# Revision: 1
# Processed by: cddbd v1.4PL0 Copyright (c) Steve Scherf et al.
# Submitted via: audiograbber 1.81.02
#
DISCID=bf0ae20e
DTITLE=Variouis - Honkytonk Style V.2
DYEAR=2003
DGENRE=Country
TTITLE0=D.B. Harris - Too Much For Me
TTITLE1=Land Of Empty Dreams - Fools Gold
TTITLE2=Gemma Fairweather - Let's Go Spend Your Money, Honey
TTITLE3=Jason Allen - Body and Fender Man
TTITLE4=Paul Bailey - True Love Ways
TTITLE5=Billy Bubba King - Rock And Roll Girls
TTITLE6=Everly's Experience - Take A Message To Mary
TTITLE7=Audrey Auld - Jellyroll
TTITLE8=Merv and Maria - Proud To Be Her Man
TTITLE9=Jamie Richards - One Tequilla
TTITLE10=Easy Rider - Wild, Wild West
TTITLE11=Diamond Jack - Memphis Tennessee
TTITLE12=Plain Loco - Attention
TTITLE13=Na Mara - Borderers
EXTD=
EXTT0=
EXTT1=
EXTT2=
EXTT3=
EXTT4=
EXTT5=
EXTT6=
EXTT7=
EXTT8=
EXTT9=
EXTT10=
EXTT11=
EXTT12=
EXTT13=
PLAYORDER=
